999
"DXF R12 Output" (www.mydxf.blogspot.com)
 0 
SECTION
 2 
HEADER
 9 
$ACADVER
 1 
AC1009
 9 
$EXTMIN
 10 
 0 
 20 
 0 
 9 
$EXTMAX
 10 
 8.5 
 20 
 11 
 0 
ENDSEC
 0 
SECTION
 2 
ENTITIES
0
LINE
8
Layer 1
10
0.793749
20
297.793749
11
-0.793749
21
296.206251
0
LINE
8
Layer 1
10
0.000000
20
298.322915
11
0.000000
21
295.677085
0
LINE
8
Layer 1
10
2.116664
20
295.941668
11
1.058332
21
294.883336
0
LINE
8
Layer 1
10
1.587498
20
296.470834
11
0.529166
21
295.412502
0
LINE
8
Layer 1
10
1.058332
20
297.000000
11
0.000000
21
295.941668
0
LINE
8
Katman_1
10
1.321689
20
48.322002
11
248.677998
21
48.322002
0
LINE
8
Katman_1
10
248.677998
20
48.322002
11
248.677998
21
295.678311
0
LINE
8
Katman_1
10
248.677998
20
295.678311
11
1.321689
21
295.678311
0
LINE
8
Katman_1
10
1.321689
20
295.678311
11
1.321689
21
48.322002
0
LINE
8
Katman_1
10
1.321689
20
-201.677678
11
248.677992
21
-201.677678
0
LINE
8
Katman_1
10
248.677992
20
-201.677678
11
248.677992
21
45.678628
0
LINE
8
Katman_1
10
248.677992
20
45.678628
11
1.321689
21
45.678628
0
LINE
8
Katman_1
10
1.321689
20
45.678628
11
1.321689
21
-201.677678
0
LINE
8
Katman_1
10
1001.866681
20
48.868260
11
1498.130171
21
48.868260
0
LINE
8
Katman_1
10
1498.130171
20
48.868260
11
1498.130171
21
295.132061
0
LINE
8
Katman_1
10
1498.130171
20
295.132061
11
1001.866681
21
295.132061
0
LINE
8
Katman_1
10
1001.866681
20
295.132061
11
1001.866681
21
48.868260
0
LINE
8
Katman_1
10
1501.866056
20
48.868268
11
1998.129546
21
48.868268
0
LINE
8
Katman_1
10
1998.129546
20
48.868268
11
1998.129546
21
295.132057
0
LINE
8
Katman_1
10
1998.129546
20
295.132057
11
1501.866056
21
295.132057
0
LINE
8
Katman_1
10
1501.866056
20
295.132057
11
1501.866056
21
48.868268
0
LINE
8
Katman_1
10
1001.866681
20
-201.131420
11
1498.130171
21
-201.131420
0
LINE
8
Katman_1
10
1498.130171
20
-201.131420
11
1498.130171
21
45.132372
0
LINE
8
Katman_1
10
1498.130171
20
45.132372
11
1001.866681
21
45.132372
0
LINE
8
Katman_1
10
1001.866681
20
45.132372
11
1001.866681
21
-201.131420
0
LINE
8
Katman_1
10
1501.866056
20
-201.131420
11
1998.129546
21
-201.131420
0
LINE
8
Katman_1
10
1998.129546
20
-201.131420
11
1998.129546
21
45.132372
0
LINE
8
Katman_1
10
1998.129546
20
45.132372
11
1501.866056
21
45.132372
0
LINE
8
Katman_1
10
1501.866056
20
45.132372
11
1501.866056
21
-201.131420
0
LINE
8
Katman_1
10
1001.316903
20
-326.681054
11
1498.679948
21
-326.681054
0
LINE
8
Katman_1
10
1498.679948
20
-326.681054
11
1498.679948
21
-204.317528
0
LINE
8
Katman_1
10
1498.679948
20
-204.317528
11
1001.316903
21
-204.317528
0
LINE
8
Katman_1
10
1001.316903
20
-204.317528
11
1001.316903
21
-326.681054
0
LINE
8
Katman_1
10
1501.866770
20
-326.681054
11
1999.229814
21
-326.681054
0
LINE
8
Katman_1
10
1999.229814
20
-326.681054
11
1999.229814
21
-204.317528
0
LINE
8
Katman_1
10
1999.229814
20
-204.317528
11
1501.866770
21
-204.317528
0
LINE
8
Katman_1
10
1501.866770
20
-204.317528
11
1501.866770
21
-326.681054
0
LINE
8
Katman_1
10
1001.318253
20
-451.679535
11
1498.128107
21
-451.679535
0
LINE
8
Katman_1
10
1498.128107
20
-451.679535
11
1498.128107
21
-328.930274
0
LINE
8
Katman_1
10
1498.128107
20
-328.930274
11
1001.318253
21
-328.930274
0
LINE
8
Katman_1
10
1001.318253
20
-328.930274
11
1001.318253
21
-451.679535
0
LINE
8
Katman_1
10
1501.868120
20
-451.679535
11
1998.677974
21
-451.679535
0
LINE
8
Katman_1
10
1998.677974
20
-451.679535
11
1998.677974
21
-328.930274
0
LINE
8
Katman_1
10
1998.677974
20
-328.930274
11
1501.868120
21
-328.930274
0
LINE
8
Katman_1
10
1501.868120
20
-328.930274
11
1501.868120
21
-451.679535
0
LINE
8
Katman_1
10
1.321689
20
-451.677365
11
248.677990
21
-451.677365
0
LINE
8
Katman_1
10
248.677990
20
-451.677365
11
248.677990
21
-204.321047
0
LINE
8
Katman_1
10
248.677990
20
-204.321047
11
1.321689
21
-204.321047
0
LINE
8
Katman_1
10
1.321689
20
-204.321047
11
1.321689
21
-451.677365
0
LINE
8
Katman_1
10
251.321372
20
48.321992
11
498.677678
21
48.321992
0
LINE
8
Katman_1
10
498.677678
20
48.321992
11
498.677678
21
295.678311
0
LINE
8
Katman_1
10
498.677678
20
295.678311
11
251.321372
21
295.678311
0
LINE
8
Katman_1
10
251.321372
20
295.678311
11
251.321372
21
48.321992
0
LINE
8
Katman_1
10
251.305415
20
-195.693657
11
498.693632
21
-195.693657
0
LINE
8
Katman_1
10
498.693632
20
-195.693657
11
498.693632
21
45.694585
0
LINE
8
Katman_1
10
498.693632
20
45.694585
11
251.305415
21
45.694585
0
LINE
8
Katman_1
10
251.305415
20
45.694585
11
251.305415
21
-195.693657
0
LINE
8
Katman_1
10
251.305415
20
-439.693343
11
498.693632
21
-439.693343
0
LINE
8
Katman_1
10
498.693632
20
-439.693343
11
498.693632
21
-198.305117
0
LINE
8
Katman_1
10
498.693632
20
-198.305117
11
251.305415
21
-198.305117
0
LINE
8
Katman_1
10
251.305415
20
-198.305117
11
251.305415
21
-439.693343
0
LINE
8
Katman_1
10
501.305093
20
48.306045
11
742.693318
21
48.306045
0
LINE
8
Katman_1
10
742.693318
20
48.306045
11
742.693318
21
295.694270
0
LINE
8
Katman_1
10
742.693318
20
295.694270
11
501.305093
21
295.694270
0
LINE
8
Katman_1
10
501.305093
20
295.694270
11
501.305093
21
48.306045
0
LINE
8
Katman_1
10
501.305093
20
-201.693632
11
742.693318
21
-201.693632
0
LINE
8
Katman_1
10
742.693318
20
-201.693632
11
742.693318
21
45.694585
0
LINE
8
Katman_1
10
742.693318
20
45.694585
11
501.305093
21
45.694585
0
LINE
8
Katman_1
10
501.305093
20
45.694585
11
501.305093
21
-201.693632
0
LINE
8
Katman_1
10
501.305093
20
-451.693320
11
742.693318
21
-451.693320
0
LINE
8
Katman_1
10
742.693318
20
-451.693320
11
742.693318
21
-204.305093
0
LINE
8
Katman_1
10
742.693318
20
-204.305093
11
501.305093
21
-204.305093
0
LINE
8
Katman_1
10
501.305093
20
-204.305093
11
501.305093
21
-451.693320
0
LINE
8
Katman_1
10
745.304805
20
48.306053
11
986.693031
21
48.306053
0
LINE
8
Katman_1
10
986.693031
20
48.306053
11
986.693031
21
295.694270
0
LINE
8
Katman_1
10
986.693031
20
295.694270
11
745.304805
21
295.694270
0
LINE
8
Katman_1
10
745.304805
20
295.694270
11
745.304805
21
48.306053
0
LINE
8
Katman_1
10
745.304805
20
-201.693632
11
986.693031
21
-201.693632
0
LINE
8
Katman_1
10
986.693031
20
-201.693632
11
986.693031
21
45.694593
0
LINE
8
Katman_1
10
986.693031
20
45.694593
11
745.304805
21
45.694593
0
LINE
8
Katman_1
10
745.304805
20
45.694593
11
745.304805
21
-201.693632
0
LINE
8
Katman_1
10
745.304805
20
-451.693320
11
986.693031
21
-451.693320
0
LINE
8
Katman_1
10
986.693031
20
-451.693320
11
986.693031
21
-204.305093
0
LINE
8
Katman_1
10
986.693031
20
-204.305093
11
745.304805
21
-204.305093
0
LINE
8
Katman_1
10
745.304805
20
-204.305093
11
745.304805
21
-451.693320
0
LINE
8
Katman_1
10
0.933969
20
-627.064859
11
249.065718
21
-627.064859
0
LINE
8
Katman_1
10
249.065718
20
-627.064859
11
249.065718
21
-503.932958
0
LINE
8
Katman_1
10
249.065718
20
-503.932958
11
0.933969
21
-503.932958
0
LINE
8
Katman_1
10
0.933969
20
-503.932958
11
0.933969
21
-627.064859
0
LINE
8
Katman_1
10
1.772680
20
-501.226326
11
1.772680
21
295.227320
0
LINE
8
Katman_1
10
1.772680
20
295.227320
11
998.226098
21
295.227320
0
LINE
8
Katman_1
10
998.226098
20
295.227320
11
998.226098
21
-501.226326
0
LINE
8
Katman_1
10
998.226098
20
-501.226326
11
1.772680
21
-501.226326
0
LINE
8
Katman_1
10
1001.771431
20
-501.226326
11
1001.771431
21
295.227320
0
LINE
8
Katman_1
10
1001.771431
20
295.227320
11
1998.224849
21
295.227320
0
LINE
8
Katman_1
10
1998.224849
20
295.227320
11
1998.224849
21
-501.226326
0
LINE
8
Katman_1
10
1998.224849
20
-501.226326
11
1001.771431
21
-501.226326
0
LINE
8
Katman_1
10
1.772680
20
-1301.225306
11
1.772680
21
-504.771659
0
LINE
8
Katman_1
10
1.772680
20
-504.771659
11
998.226098
21
-504.771659
0
LINE
8
Katman_1
10
998.226098
20
-504.771659
11
998.226098
21
-1301.225306
0
LINE
8
Katman_1
10
998.226098
20
-1301.225306
11
1.772680
21
-1301.225306
0
LINE
8
Katman_1
10
1001.771431
20
-1301.225306
11
1001.771431
21
-504.771659
0
LINE
8
Katman_1
10
1001.771431
20
-504.771659
11
1998.224849
21
-504.771659
0
LINE
8
Katman_1
10
1998.224849
20
-504.771659
11
1998.224849
21
-1301.225306
0
LINE
8
Katman_1
10
1998.224849
20
-1301.225306
11
1001.771431
21
-1301.225306
0
LINE
8
Katman_1
10
250.933653
20
-627.064859
11
499.065398
21
-627.064859
0
LINE
8
Katman_1
10
499.065398
20
-627.064859
11
499.065398
21
-503.932958
0
LINE
8
Katman_1
10
499.065398
20
-503.932958
11
250.933653
21
-503.932958
0
LINE
8
Katman_1
10
250.933653
20
-503.932958
11
250.933653
21
-627.064859
0
LINE
8
Katman_1
10
500.933327
20
-627.064859
11
749.065085
21
-627.064859
0
LINE
8
Katman_1
10
749.065085
20
-627.064859
11
749.065085
21
-503.932958
0
LINE
8
Katman_1
10
749.065085
20
-503.932958
11
500.933327
21
-503.932958
0
LINE
8
Katman_1
10
500.933327
20
-503.932958
11
500.933327
21
-627.064859
0
LINE
8
Katman_1
10
750.933015
20
-627.064859
11
999.064773
21
-627.064859
0
LINE
8
Katman_1
10
999.064773
20
-627.064859
11
999.064773
21
-503.932958
0
LINE
8
Katman_1
10
999.064773
20
-503.932958
11
750.933015
21
-503.932958
0
LINE
8
Katman_1
10
750.933015
20
-503.932958
11
750.933015
21
-627.064859
0
LINE
8
Katman_1
10
0.933969
20
-752.064716
11
249.065702
21
-752.064716
0
LINE
8
Katman_1
10
249.065702
20
-752.064716
11
249.065702
21
-628.932815
0
LINE
8
Katman_1
10
249.065702
20
-628.932815
11
0.933969
21
-628.932815
0
LINE
8
Katman_1
10
0.933969
20
-628.932815
11
0.933969
21
-752.064716
0
LINE
8
Katman_1
10
250.933658
20
-752.064716
11
499.065371
21
-752.064716
0
LINE
8
Katman_1
10
499.065371
20
-752.064716
11
499.065371
21
-628.932815
0
LINE
8
Katman_1
10
499.065371
20
-628.932815
11
250.933658
21
-628.932815
0
LINE
8
Katman_1
10
250.933658
20
-628.932815
11
250.933658
21
-752.064716
0
LINE
8
Katman_1
10
500.933301
20
-752.064716
11
749.065059
21
-752.064716
0
LINE
8
Katman_1
10
749.065059
20
-752.064716
11
749.065059
21
-628.932815
0
LINE
8
Katman_1
10
749.065059
20
-628.932815
11
500.933301
21
-628.932815
0
LINE
8
Katman_1
10
500.933301
20
-628.932815
11
500.933301
21
-752.064716
0
LINE
8
Katman_1
10
750.932988
20
-752.064716
11
999.064747
21
-752.064716
0
LINE
8
Katman_1
10
999.064747
20
-752.064716
11
999.064747
21
-628.932815
0
LINE
8
Katman_1
10
999.064747
20
-628.932815
11
750.932988
21
-628.932815
0
LINE
8
Katman_1
10
750.932988
20
-628.932815
11
750.932988
21
-752.064716
0
LINE
8
Katman_1
10
0.933969
20
-877.064546
11
249.065699
21
-877.064546
0
LINE
8
Katman_1
10
249.065699
20
-877.064546
11
249.065699
21
-753.932645
0
LINE
8
Katman_1
10
249.065699
20
-753.932645
11
0.933969
21
-753.932645
0
LINE
8
Katman_1
10
0.933969
20
-753.932645
11
0.933969
21
-877.064546
0
LINE
8
Katman_1
10
250.933655
20
-877.064546
11
499.065398
21
-877.064546
0
LINE
8
Katman_1
10
499.065398
20
-877.064546
11
499.065398
21
-753.932645
0
LINE
8
Katman_1
10
499.065398
20
-753.932645
11
250.933655
21
-753.932645
0
LINE
8
Katman_1
10
250.933655
20
-753.932645
11
250.933655
21
-877.064546
0
LINE
8
Katman_1
10
500.933327
20
-877.064546
11
749.065085
21
-877.064546
0
LINE
8
Katman_1
10
749.065085
20
-877.064546
11
749.065085
21
-753.932645
0
LINE
8
Katman_1
10
749.065085
20
-753.932645
11
500.933327
21
-753.932645
0
LINE
8
Katman_1
10
500.933327
20
-753.932645
11
500.933327
21
-877.064546
0
LINE
8
Katman_1
10
750.933015
20
-877.064546
11
999.064773
21
-877.064546
0
LINE
8
Katman_1
10
999.064773
20
-877.064546
11
999.064773
21
-753.932645
0
LINE
8
Katman_1
10
999.064773
20
-753.932645
11
750.933015
21
-753.932645
0
LINE
8
Katman_1
10
750.933015
20
-753.932645
11
750.933015
21
-877.064546
0
LINE
8
Katman_1
10
0.911213
20
-996.109381
11
249.054259
21
-996.109381
0
LINE
8
Katman_1
10
249.054259
20
-996.109381
11
249.054259
21
-878.909722
0
LINE
8
Katman_1
10
249.054259
20
-878.909722
11
0.911213
21
-878.909722
0
LINE
8
Katman_1
10
0.911213
20
-878.909722
11
0.911213
21
-996.109381
0
LINE
8
Katman_1
10
250.922299
20
-996.109381
11
499.065345
21
-996.109381
0
LINE
8
Katman_1
10
499.065345
20
-996.109381
11
499.065345
21
-878.909722
0
LINE
8
Katman_1
10
499.065345
20
-878.909722
11
250.922299
21
-878.909722
0
LINE
8
Katman_1
10
250.922299
20
-878.909722
11
250.922299
21
-996.109381
0
LINE
8
Katman_1
10
500.933380
20
-996.109381
11
749.076436
21
-996.109381
0
LINE
8
Katman_1
10
749.076436
20
-996.109381
11
749.076436
21
-878.909722
0
LINE
8
Katman_1
10
749.076436
20
-878.909722
11
500.933380
21
-878.909722
0
LINE
8
Katman_1
10
500.933380
20
-878.909722
11
500.933380
21
-996.109381
0
LINE
8
Katman_1
10
750.944445
20
-996.109381
11
999.087527
21
-996.109381
0
LINE
8
Katman_1
10
999.087527
20
-996.109381
11
999.087527
21
-878.909722
0
LINE
8
Katman_1
10
999.087527
20
-878.909722
11
750.944445
21
-878.909722
0
LINE
8
Katman_1
10
750.944445
20
-878.909722
11
750.944445
21
-996.109381
0
LINE
8
Katman_1
10
0.911213
20
-1115.086985
11
249.054259
21
-1115.086985
0
LINE
8
Katman_1
10
249.054259
20
-1115.086985
11
249.054259
21
-997.887326
0
LINE
8
Katman_1
10
249.054259
20
-997.887326
11
0.911213
21
-997.887326
0
LINE
8
Katman_1
10
0.911213
20
-997.887326
11
0.911213
21
-1115.086985
0
LINE
8
Katman_1
10
250.922299
20
-1115.086985
11
499.065318
21
-1115.086985
0
LINE
8
Katman_1
10
499.065318
20
-1115.086985
11
499.065318
21
-997.887326
0
LINE
8
Katman_1
10
499.065318
20
-997.887326
11
250.922299
21
-997.887326
0
LINE
8
Katman_1
10
250.922299
20
-997.887326
11
250.922299
21
-1115.086985
0
LINE
8
Katman_1
10
500.933353
20
-1115.086985
11
749.076409
21
-1115.086985
0
LINE
8
Katman_1
10
749.076409
20
-1115.086985
11
749.076409
21
-997.887326
0
LINE
8
Katman_1
10
749.076409
20
-997.887326
11
500.933353
21
-997.887326
0
LINE
8
Katman_1
10
500.933353
20
-997.887326
11
500.933353
21
-1115.086985
0
LINE
8
Katman_1
10
750.944418
20
-1115.086985
11
999.087501
21
-1115.086985
0
LINE
8
Katman_1
10
999.087501
20
-1115.086985
11
999.087501
21
-997.887326
0
LINE
8
Katman_1
10
999.087501
20
-997.887326
11
750.944418
21
-997.887326
0
LINE
8
Katman_1
10
750.944418
20
-997.887326
11
750.944418
21
-1115.086985
0
LINE
8
Katman_1
10
1000.932703
20
-627.064859
11
1249.064434
21
-627.064859
0
LINE
8
Katman_1
10
1249.064434
20
-627.064859
11
1249.064434
21
-503.932958
0
LINE
8
Katman_1
10
1249.064434
20
-503.932958
11
1000.932703
21
-503.932958
0
LINE
8
Katman_1
10
1000.932703
20
-503.932958
11
1000.932703
21
-627.064859
0
LINE
8
Katman_1
10
1250.932390
20
-627.064859
11
1499.064096
21
-627.064859
0
LINE
8
Katman_1
10
1499.064096
20
-627.064859
11
1499.064096
21
-503.932958
0
LINE
8
Katman_1
10
1499.064096
20
-503.932958
11
1250.932390
21
-503.932958
0
LINE
8
Katman_1
10
1250.932390
20
-503.932958
11
1250.932390
21
-627.064859
0
LINE
8
Katman_1
10
1500.932025
20
-627.064859
11
1749.063783
21
-627.064859
0
LINE
8
Katman_1
10
1749.063783
20
-627.064859
11
1749.063783
21
-503.932958
0
LINE
8
Katman_1
10
1749.063783
20
-503.932958
11
1500.932025
21
-503.932958
0
LINE
8
Katman_1
10
1500.932025
20
-503.932958
11
1500.932025
21
-627.064859
0
LINE
8
Katman_1
10
1750.931713
20
-627.064859
11
1999.063471
21
-627.064859
0
LINE
8
Katman_1
10
1999.063471
20
-627.064859
11
1999.063471
21
-503.932958
0
LINE
8
Katman_1
10
1999.063471
20
-503.932958
11
1750.931713
21
-503.932958
0
LINE
8
Katman_1
10
1750.931713
20
-503.932958
11
1750.931713
21
-627.064859
0
LINE
8
Katman_1
10
1000.932703
20
-752.064689
11
1249.064434
21
-752.064689
0
LINE
8
Katman_1
10
1249.064434
20
-752.064689
11
1249.064434
21
-628.932788
0
LINE
8
Katman_1
10
1249.064434
20
-628.932788
11
1000.932703
21
-628.932788
0
LINE
8
Katman_1
10
1000.932703
20
-628.932788
11
1000.932703
21
-752.064689
0
LINE
8
Katman_1
10
1250.932390
20
-752.064689
11
1499.064122
21
-752.064689
0
LINE
8
Katman_1
10
1499.064122
20
-752.064689
11
1499.064122
21
-628.932788
0
LINE
8
Katman_1
10
1499.064122
20
-628.932788
11
1250.932390
21
-628.932788
0
LINE
8
Katman_1
10
1250.932390
20
-628.932788
11
1250.932390
21
-752.064689
0
LINE
8
Katman_1
10
1500.932052
20
-752.064689
11
1749.063810
21
-752.064689
0
LINE
8
Katman_1
10
1749.063810
20
-752.064689
11
1749.063810
21
-628.932788
0
LINE
8
Katman_1
10
1749.063810
20
-628.932788
11
1500.932052
21
-628.932788
0
LINE
8
Katman_1
10
1500.932052
20
-628.932788
11
1500.932052
21
-752.064689
0
LINE
8
Katman_1
10
1750.931739
20
-752.064689
11
1999.063498
21
-752.064689
0
LINE
8
Katman_1
10
1999.063498
20
-752.064689
11
1999.063498
21
-628.932788
0
LINE
8
Katman_1
10
1999.063498
20
-628.932788
11
1750.931739
21
-628.932788
0
LINE
8
Katman_1
10
1750.931739
20
-628.932788
11
1750.931739
21
-752.064689
0
LINE
8
Katman_1
10
1000.909948
20
-871.109524
11
1249.052978
21
-871.109524
0
LINE
8
Katman_1
10
1249.052978
20
-871.109524
11
1249.052978
21
-753.909865
0
LINE
8
Katman_1
10
1249.052978
20
-753.909865
11
1000.909948
21
-753.909865
0
LINE
8
Katman_1
10
1000.909948
20
-753.909865
11
1000.909948
21
-871.109524
0
LINE
8
Katman_1
10
1250.921013
20
-871.109524
11
1499.064069
21
-871.109524
0
LINE
8
Katman_1
10
1499.064069
20
-871.109524
11
1499.064069
21
-753.909865
0
LINE
8
Katman_1
10
1499.064069
20
-753.909865
11
1250.921013
21
-753.909865
0
LINE
8
Katman_1
10
1250.921013
20
-753.909865
11
1250.921013
21
-871.109524
0
LINE
8
Katman_1
10
1500.932104
20
-871.109524
11
1749.075160
21
-871.109524
0
LINE
8
Katman_1
10
1749.075160
20
-871.109524
11
1749.075160
21
-753.909865
0
LINE
8
Katman_1
10
1749.075160
20
-753.909865
11
1500.932104
21
-753.909865
0
LINE
8
Katman_1
10
1500.932104
20
-753.909865
11
1500.932104
21
-871.109524
0
LINE
8
Katman_1
10
1750.943169
20
-871.109524
11
1999.086252
21
-871.109524
0
LINE
8
Katman_1
10
1999.086252
20
-871.109524
11
1999.086252
21
-753.909865
0
LINE
8
Katman_1
10
1999.086252
20
-753.909865
11
1750.943169
21
-753.909865
0
LINE
8
Katman_1
10
1750.943169
20
-753.909865
11
1750.943169
21
-871.109524
0
LINE
8
Katman_1
10
1000.909948
20
-990.087128
11
1249.052978
21
-990.087128
0
LINE
8
Katman_1
10
1249.052978
20
-990.087128
11
1249.052978
21
-872.887469
0
LINE
8
Katman_1
10
1249.052978
20
-872.887469
11
1000.909948
21
-872.887469
0
LINE
8
Katman_1
10
1000.909948
20
-872.887469
11
1000.909948
21
-990.087128
0
LINE
8
Katman_1
10
1250.921013
20
-990.087128
11
1499.064043
21
-990.087128
0
LINE
8
Katman_1
10
1499.064043
20
-990.087128
11
1499.064043
21
-872.887469
0
LINE
8
Katman_1
10
1499.064043
20
-872.887469
11
1250.921013
21
-872.887469
0
LINE
8
Katman_1
10
1250.921013
20
-872.887469
11
1250.921013
21
-990.087128
0
LINE
8
Katman_1
10
1500.932078
20
-990.087128
11
1749.075134
21
-990.087128
0
LINE
8
Katman_1
10
1749.075134
20
-990.087128
11
1749.075134
21
-872.887469
0
LINE
8
Katman_1
10
1749.075134
20
-872.887469
11
1500.932078
21
-872.887469
0
LINE
8
Katman_1
10
1500.932078
20
-872.887469
11
1500.932078
21
-990.087128
0
LINE
8
Katman_1
10
1750.943143
20
-990.087128
11
1999.086225
21
-990.087128
0
LINE
8
Katman_1
10
1999.086225
20
-990.087128
11
1999.086225
21
-872.887469
0
LINE
8
Katman_1
10
1999.086225
20
-872.887469
11
1750.943143
21
-872.887469
0
LINE
8
Katman_1
10
1750.943143
20
-872.887469
11
1750.943143
21
-990.087128
0
LINE
8
Katman_1
10
0.661617
20
-1252.336427
11
124.630711
21
-1252.336427
0
LINE
8
Katman_1
10
124.630711
20
-1252.336427
11
124.630711
21
-1128.659802
0
LINE
8
Katman_1
10
124.630711
20
-1128.659802
11
0.661617
21
-1128.659802
0
LINE
8
Katman_1
10
0.661617
20
-1128.659802
11
0.661617
21
-1252.336427
0
LINE
8
Katman_1
10
125.563961
20
-1252.336427
11
249.533064
21
-1252.336427
0
LINE
8
Katman_1
10
249.533064
20
-1252.336427
11
249.533064
21
-1128.659802
0
LINE
8
Katman_1
10
249.533064
20
-1128.659802
11
125.563961
21
-1128.659802
0
LINE
8
Katman_1
10
125.563961
20
-1128.659802
11
125.563961
21
-1252.336427
0
LINE
8
Katman_1
10
250.466298
20
-1252.336427
11
374.435401
21
-1252.336427
0
LINE
8
Katman_1
10
374.435401
20
-1252.336427
11
374.435401
21
-1128.659802
0
LINE
8
Katman_1
10
374.435401
20
-1128.659802
11
250.466298
21
-1128.659802
0
LINE
8
Katman_1
10
250.466298
20
-1128.659802
11
250.466298
21
-1252.336427
0
LINE
8
Katman_1
10
375.368638
20
-1252.336427
11
499.337759
21
-1252.336427
0
LINE
8
Katman_1
10
499.337759
20
-1252.336427
11
499.337759
21
-1128.659802
0
LINE
8
Katman_1
10
499.337759
20
-1128.659802
11
375.368638
21
-1128.659802
0
LINE
8
Katman_1
10
375.368638
20
-1128.659802
11
375.368638
21
-1252.336427
0
LINE
8
Katman_1
10
500.660992
20
-1252.336453
11
624.630086
21
-1252.336453
0
LINE
8
Katman_1
10
624.630086
20
-1252.336453
11
624.630086
21
-1128.659828
0
LINE
8
Katman_1
10
624.630086
20
-1128.659828
11
500.660992
21
-1128.659828
0
LINE
8
Katman_1
10
500.660992
20
-1128.659828
11
500.660992
21
-1252.336453
0
LINE
8
Katman_1
10
625.563350
20
-1252.336453
11
749.532445
21
-1252.336453
0
LINE
8
Katman_1
10
749.532445
20
-1252.336453
11
749.532445
21
-1128.659828
0
LINE
8
Katman_1
10
749.532445
20
-1128.659828
11
625.563350
21
-1128.659828
0
LINE
8
Katman_1
10
625.563350
20
-1128.659828
11
625.563350
21
-1252.336453
0
LINE
8
Katman_1
10
750.465682
20
-1252.336453
11
874.434776
21
-1252.336453
0
LINE
8
Katman_1
10
874.434776
20
-1252.336453
11
874.434776
21
-1128.659828
0
LINE
8
Katman_1
10
874.434776
20
-1128.659828
11
750.465682
21
-1128.659828
0
LINE
8
Katman_1
10
750.465682
20
-1128.659828
11
750.465682
21
-1252.336453
0
LINE
8
Katman_1
10
875.368014
20
-1252.336453
11
999.337135
21
-1252.336453
0
LINE
8
Katman_1
10
999.337135
20
-1252.336453
11
999.337135
21
-1128.659828
0
LINE
8
Katman_1
10
999.337135
20
-1128.659828
11
875.368014
21
-1128.659828
0
LINE
8
Katman_1
10
875.368014
20
-1128.659828
11
875.368014
21
-1252.336453
0
LINE
8
Katman_1
10
1050.087170
20
-1003.086832
11
1099.910115
21
-1003.086832
0
LINE
8
Katman_1
10
1099.910115
20
-1003.086832
11
1099.910115
21
-1052.909776
0
LINE
8
Katman_1
10
1099.910115
20
-1052.909776
11
1050.087170
21
-1052.909776
0
LINE
8
Katman_1
10
1050.087170
20
-1052.909776
11
1050.087170
21
-1003.086832
0
LINE
8
Katman_1
10
1050.082778
20
-1052.913340
11
1099.914764
21
-1003.082466
0
LINE
8
Katman_1
10
1100.087140
20
-1003.086832
11
1149.910084
21
-1003.086832
0
LINE
8
Katman_1
10
1149.910084
20
-1003.086832
11
1149.910084
21
-1052.909776
0
LINE
8
Katman_1
10
1149.910084
20
-1052.909776
11
1100.087140
21
-1052.909776
0
LINE
8
Katman_1
10
1100.087140
20
-1052.909776
11
1100.087140
21
-1003.086832
0
LINE
8
Katman_1
10
1100.082721
20
-1052.913367
11
1149.914707
21
-1003.082493
0
LINE
8
Katman_1
10
1150.087135
20
-1003.086832
11
1199.910080
21
-1003.086832
0
LINE
8
Katman_1
10
1199.910080
20
-1003.086832
11
1199.910080
21
-1052.909776
0
LINE
8
Katman_1
10
1199.910080
20
-1052.909776
11
1150.087135
21
-1052.909776
0
LINE
8
Katman_1
10
1150.087135
20
-1052.909776
11
1150.087135
21
-1003.086832
0
LINE
8
Katman_1
10
1150.082664
20
-1052.913367
11
1199.914650
21
-1003.082493
0
LINE
8
Katman_1
10
1200.087131
20
-1003.086832
11
1249.910076
21
-1003.086832
0
LINE
8
Katman_1
10
1249.910076
20
-1003.086832
11
1249.910076
21
-1052.909776
0
LINE
8
Katman_1
10
1249.910076
20
-1052.909776
11
1200.087131
21
-1052.909776
0
LINE
8
Katman_1
10
1200.087131
20
-1052.909776
11
1200.087131
21
-1003.086832
0
LINE
8
Katman_1
10
1200.082607
20
-1052.913393
11
1249.914592
21
-1003.082519
0
LINE
8
Katman_1
10
1050.087223
20
-1053.086827
11
1099.910168
21
-1053.086827
0
LINE
8
Katman_1
10
1099.910168
20
-1053.086827
11
1099.910168
21
-1102.909772
0
LINE
8
Katman_1
10
1099.910168
20
-1102.909772
11
1050.087223
21
-1102.909772
0
LINE
8
Katman_1
10
1050.087223
20
-1102.909772
11
1050.087223
21
-1053.086827
0
LINE
8
Katman_1
10
1050.082778
20
-1102.913310
11
1099.914764
21
-1053.082435
0
LINE
8
Katman_1
10
1100.087140
20
-1053.086827
11
1149.910084
21
-1053.086827
0
LINE
8
Katman_1
10
1149.910084
20
-1053.086827
11
1149.910084
21
-1102.909772
0
LINE
8
Katman_1
10
1149.910084
20
-1102.909772
11
1100.087140
21
-1102.909772
0
LINE
8
Katman_1
10
1100.087140
20
-1102.909772
11
1100.087140
21
-1053.086827
0
LINE
8
Katman_1
10
1100.082721
20
-1102.913336
11
1149.914707
21
-1053.082462
0
LINE
8
Katman_1
10
1150.087003
20
-1053.086827
11
1199.909948
21
-1053.086827
0
LINE
8
Katman_1
10
1199.909948
20
-1053.086827
11
1199.909948
21
-1102.909772
0
LINE
8
Katman_1
10
1199.909948
20
-1102.909772
11
1150.087003
21
-1102.909772
0
LINE
8
Katman_1
10
1150.087003
20
-1102.909772
11
1150.087003
21
-1053.086827
0
LINE
8
Katman_1
10
1150.082664
20
-1102.913336
11
1199.914650
21
-1053.082462
0
LINE
8
Katman_1
10
1200.086999
20
-1053.086827
11
1249.909944
21
-1053.086827
0
LINE
8
Katman_1
10
1249.909944
20
-1053.086827
11
1249.909944
21
-1102.909772
0
LINE
8
Katman_1
10
1249.909944
20
-1102.909772
11
1200.086999
21
-1102.909772
0
LINE
8
Katman_1
10
1200.086999
20
-1102.909772
11
1200.086999
21
-1053.086827
0
LINE
8
Katman_1
10
1200.082607
20
-1102.913363
11
1249.914592
21
-1053.082488
0
LINE
8
Katman_1
10
1050.087170
20
-1203.086656
11
1099.910115
21
-1203.086656
0
LINE
8
Katman_1
10
1099.910115
20
-1203.086656
11
1099.910115
21
-1252.909601
0
LINE
8
Katman_1
10
1099.910115
20
-1252.909601
11
1050.087170
21
-1252.909601
0
LINE
8
Katman_1
10
1050.087170
20
-1252.909601
11
1050.087170
21
-1203.086656
0
LINE
8
Katman_1
10
1050.082778
20
-1252.913112
11
1099.914764
21
-1203.082237
0
LINE
8
Katman_1
10
1100.087140
20
-1203.086656
11
1149.910084
21
-1203.086656
0
LINE
8
Katman_1
10
1149.910084
20
-1203.086656
11
1149.910084
21
-1252.909601
0
LINE
8
Katman_1
10
1149.910084
20
-1252.909601
11
1100.087140
21
-1252.909601
0
LINE
8
Katman_1
10
1100.087140
20
-1252.909601
11
1100.087140
21
-1203.086656
0
LINE
8
Katman_1
10
1100.082721
20
-1252.913138
11
1149.914707
21
-1203.082264
0
LINE
8
Katman_1
10
1150.087135
20
-1203.086656
11
1199.910080
21
-1203.086656
0
LINE
8
Katman_1
10
1199.910080
20
-1203.086656
11
1199.910080
21
-1252.909601
0
LINE
8
Katman_1
10
1199.910080
20
-1252.909601
11
1150.087135
21
-1252.909601
0
LINE
8
Katman_1
10
1150.087135
20
-1252.909601
11
1150.087135
21
-1203.086656
0
LINE
8
Katman_1
10
1150.082664
20
-1252.913138
11
1199.914650
21
-1203.082264
0
LINE
8
Katman_1
10
1200.087131
20
-1203.086656
11
1249.910076
21
-1203.086656
0
LINE
8
Katman_1
10
1249.910076
20
-1203.086656
11
1249.910076
21
-1252.909601
0
LINE
8
Katman_1
10
1249.910076
20
-1252.909601
11
1200.087131
21
-1252.909601
0
LINE
8
Katman_1
10
1200.087131
20
-1252.909601
11
1200.087131
21
-1203.086656
0
LINE
8
Katman_1
10
1200.082607
20
-1252.913165
11
1249.914592
21
-1203.082290
0
LINE
8
Katman_1
10
1050.087223
20
-1253.086625
11
1099.910168
21
-1253.086625
0
LINE
8
Katman_1
10
1099.910168
20
-1253.086625
11
1099.910168
21
-1302.909570
0
LINE
8
Katman_1
10
1099.910168
20
-1302.909570
11
1050.087223
21
-1302.909570
0
LINE
8
Katman_1
10
1050.087223
20
-1302.909570
11
1050.087223
21
-1253.086625
0
LINE
8
Katman_1
10
1050.082778
20
-1302.913081
11
1099.914764
21
-1253.082207
0
LINE
8
Katman_1
10
1100.087140
20
-1253.086625
11
1149.910084
21
-1253.086625
0
LINE
8
Katman_1
10
1149.910084
20
-1253.086625
11
1149.910084
21
-1302.909570
0
LINE
8
Katman_1
10
1149.910084
20
-1302.909570
11
1100.087140
21
-1302.909570
0
LINE
8
Katman_1
10
1100.087140
20
-1302.909570
11
1100.087140
21
-1253.086625
0
LINE
8
Katman_1
10
1100.082721
20
-1302.913107
11
1149.914707
21
-1253.082233
0
LINE
8
Katman_1
10
1150.087003
20
-1253.086625
11
1199.909948
21
-1253.086625
0
LINE
8
Katman_1
10
1199.909948
20
-1253.086625
11
1199.909948
21
-1302.909570
0
LINE
8
Katman_1
10
1199.909948
20
-1302.909570
11
1150.087003
21
-1302.909570
0
LINE
8
Katman_1
10
1150.087003
20
-1302.909570
11
1150.087003
21
-1253.086625
0
LINE
8
Katman_1
10
1150.082664
20
-1302.913107
11
1199.914650
21
-1253.082233
0
LINE
8
Katman_1
10
1200.086999
20
-1253.086625
11
1249.909944
21
-1253.086625
0
LINE
8
Katman_1
10
1249.909944
20
-1253.086625
11
1249.909944
21
-1302.909570
0
LINE
8
Katman_1
10
1249.909944
20
-1302.909570
11
1200.086999
21
-1302.909570
0
LINE
8
Katman_1
10
1200.086999
20
-1302.909570
11
1200.086999
21
-1253.086625
0
LINE
8
Katman_1
10
1200.082607
20
-1302.913134
11
1249.914592
21
-1253.082260
0
LINE
8
Katman_1
10
1050.087170
20
-1103.086691
11
1099.910115
21
-1103.086691
0
LINE
8
Katman_1
10
1099.910115
20
-1103.086691
11
1099.910115
21
-1152.909636
0
LINE
8
Katman_1
10
1099.910115
20
-1152.909636
11
1050.087170
21
-1152.909636
0
LINE
8
Katman_1
10
1050.087170
20
-1152.909636
11
1050.087170
21
-1103.086691
0
LINE
8
Katman_1
10
1050.082778
20
-1152.913253
11
1099.914764
21
-1103.082378
0
LINE
8
Katman_1
10
1100.087140
20
-1103.086691
11
1149.910084
21
-1103.086691
0
LINE
8
Katman_1
10
1149.910084
20
-1103.086691
11
1149.910084
21
-1152.909636
0
LINE
8
Katman_1
10
1149.910084
20
-1152.909636
11
1100.087140
21
-1152.909636
0
LINE
8
Katman_1
10
1100.087140
20
-1152.909636
11
1100.087140
21
-1103.086691
0
LINE
8
Katman_1
10
1100.082721
20
-1152.913279
11
1149.914707
21
-1103.082405
0
LINE
8
Katman_1
10
1150.087135
20
-1103.086691
11
1199.910080
21
-1103.086691
0
LINE
8
Katman_1
10
1199.910080
20
-1103.086691
11
1199.910080
21
-1152.909636
0
LINE
8
Katman_1
10
1199.910080
20
-1152.909636
11
1150.087135
21
-1152.909636
0
LINE
8
Katman_1
10
1150.087135
20
-1152.909636
11
1150.087135
21
-1103.086691
0
LINE
8
Katman_1
10
1150.082664
20
-1152.913279
11
1199.914650
21
-1103.082405
0
LINE
8
Katman_1
10
1200.087131
20
-1103.086691
11
1249.910076
21
-1103.086691
0
LINE
8
Katman_1
10
1249.910076
20
-1103.086691
11
1249.910076
21
-1152.909636
0
LINE
8
Katman_1
10
1249.910076
20
-1152.909636
11
1200.087131
21
-1152.909636
0
LINE
8
Katman_1
10
1200.087131
20
-1152.909636
11
1200.087131
21
-1103.086691
0
LINE
8
Katman_1
10
1200.082607
20
-1152.913305
11
1249.914592
21
-1103.082431
0
LINE
8
Katman_1
10
1050.087303
20
-1153.086660
11
1099.910247
21
-1153.086660
0
LINE
8
Katman_1
10
1099.910247
20
-1153.086660
11
1099.910247
21
-1202.909605
0
LINE
8
Katman_1
10
1099.910247
20
-1202.909605
11
1050.087303
21
-1202.909605
0
LINE
8
Katman_1
10
1050.087303
20
-1202.909605
11
1050.087303
21
-1153.086660
0
LINE
8
Katman_1
10
1050.082778
20
-1202.913222
11
1099.914764
21
-1153.082347
0
LINE
8
Katman_1
10
1100.087140
20
-1153.086660
11
1149.910084
21
-1153.086660
0
LINE
8
Katman_1
10
1149.910084
20
-1153.086660
11
1149.910084
21
-1202.909605
0
LINE
8
Katman_1
10
1149.910084
20
-1202.909605
11
1100.087140
21
-1202.909605
0
LINE
8
Katman_1
10
1100.087140
20
-1202.909605
11
1100.087140
21
-1153.086660
0
LINE
8
Katman_1
10
1100.082721
20
-1202.913248
11
1149.914707
21
-1153.082374
0
LINE
8
Katman_1
10
1150.087003
20
-1153.086660
11
1199.909948
21
-1153.086660
0
LINE
8
Katman_1
10
1199.909948
20
-1153.086660
11
1199.909948
21
-1202.909605
0
LINE
8
Katman_1
10
1199.909948
20
-1202.909605
11
1150.087003
21
-1202.909605
0
LINE
8
Katman_1
10
1150.087003
20
-1202.909605
11
1150.087003
21
-1153.086660
0
LINE
8
Katman_1
10
1150.082664
20
-1202.913248
11
1199.914650
21
-1153.082374
0
LINE
8
Katman_1
10
1200.086999
20
-1153.086660
11
1249.909944
21
-1153.086660
0
LINE
8
Katman_1
10
1249.909944
20
-1153.086660
11
1249.909944
21
-1202.909605
0
LINE
8
Katman_1
10
1249.909944
20
-1202.909605
11
1200.086999
21
-1202.909605
0
LINE
8
Katman_1
10
1200.086999
20
-1202.909605
11
1200.086999
21
-1153.086660
0
LINE
8
Katman_1
10
1200.082607
20
-1202.913275
11
1249.914592
21
-1153.082400
0
LINE
8
Katman_1
10
1250.086968
20
-1003.086964
11
1299.909913
21
-1003.086964
0
LINE
8
Katman_1
10
1299.909913
20
-1003.086964
11
1299.909913
21
-1052.909909
0
LINE
8
Katman_1
10
1299.909913
20
-1052.909909
11
1250.086968
21
-1052.909909
0
LINE
8
Katman_1
10
1250.086968
20
-1052.909909
11
1250.086968
21
-1003.086964
0
LINE
8
Katman_1
10
1250.082550
20
-1052.913340
11
1299.914535
21
-1003.082466
0
LINE
8
Katman_1
10
1300.086964
20
-1003.086964
11
1349.909909
21
-1003.086964
0
LINE
8
Katman_1
10
1349.909909
20
-1003.086964
11
1349.909909
21
-1052.909909
0
LINE
8
Katman_1
10
1349.909909
20
-1052.909909
11
1300.086964
21
-1052.909909
0
LINE
8
Katman_1
10
1300.086964
20
-1052.909909
11
1300.086964
21
-1003.086964
0
LINE
8
Katman_1
10
1300.082493
20
-1052.913367
11
1349.914478
21
-1003.082493
0
LINE
8
Katman_1
10
1350.086960
20
-1003.086964
11
1399.909904
21
-1003.086964
0
LINE
8
Katman_1
10
1399.909904
20
-1003.086964
11
1399.909904
21
-1052.909909
0
LINE
8
Katman_1
10
1399.909904
20
-1052.909909
11
1350.086960
21
-1052.909909
0
LINE
8
Katman_1
10
1350.086960
20
-1052.909909
11
1350.086960
21
-1003.086964
0
LINE
8
Katman_1
10
1350.082435
20
-1052.913367
11
1399.914421
21
-1003.082493
0
LINE
8
Katman_1
10
1400.086929
20
-1003.086964
11
1449.909874
21
-1003.086964
0
LINE
8
Katman_1
10
1449.909874
20
-1003.086964
11
1449.909874
21
-1052.909909
0
LINE
8
Katman_1
10
1449.909874
20
-1052.909909
11
1400.086929
21
-1052.909909
0
LINE
8
Katman_1
10
1400.086929
20
-1052.909909
11
1400.086929
21
-1003.086964
0
LINE
8
Katman_1
10
1400.082378
20
-1052.913393
11
1449.914364
21
-1003.082519
0
LINE
8
Katman_1
10
1250.087101
20
-1053.086960
11
1299.910045
21
-1053.086960
0
LINE
8
Katman_1
10
1299.910045
20
-1053.086960
11
1299.910045
21
-1102.909904
0
LINE
8
Katman_1
10
1299.910045
20
-1102.909904
11
1250.087101
21
-1102.909904
0
LINE
8
Katman_1
10
1250.087101
20
-1102.909904
11
1250.087101
21
-1053.086960
0
LINE
8
Katman_1
10
1250.082550
20
-1102.913310
11
1299.914535
21
-1053.082435
0
LINE
8
Katman_1
10
1300.086964
20
-1053.086960
11
1349.909909
21
-1053.086960
0
LINE
8
Katman_1
10
1349.909909
20
-1053.086960
11
1349.909909
21
-1102.909904
0
LINE
8
Katman_1
10
1349.909909
20
-1102.909904
11
1300.086964
21
-1102.909904
0
LINE
8
Katman_1
10
1300.086964
20
-1102.909904
11
1300.086964
21
-1053.086960
0
LINE
8
Katman_1
10
1300.082493
20
-1102.913336
11
1349.914478
21
-1053.082462
0
LINE
8
Katman_1
10
1350.086827
20
-1053.086960
11
1399.909772
21
-1053.086960
0
LINE
8
Katman_1
10
1399.909772
20
-1053.086960
11
1399.909772
21
-1102.909904
0
LINE
8
Katman_1
10
1399.909772
20
-1102.909904
11
1350.086827
21
-1102.909904
0
LINE
8
Katman_1
10
1350.086827
20
-1102.909904
11
1350.086827
21
-1053.086960
0
LINE
8
Katman_1
10
1350.082435
20
-1102.913336
11
1399.914421
21
-1053.082462
0
LINE
8
Katman_1
10
1400.086797
20
-1053.086960
11
1449.909741
21
-1053.086960
0
LINE
8
Katman_1
10
1449.909741
20
-1053.086960
11
1449.909741
21
-1102.909904
0
LINE
8
Katman_1
10
1449.909741
20
-1102.909904
11
1400.086797
21
-1102.909904
0
LINE
8
Katman_1
10
1400.086797
20
-1102.909904
11
1400.086797
21
-1053.086960
0
LINE
8
Katman_1
10
1400.082378
20
-1102.913363
11
1449.914364
21
-1053.082488
0
LINE
8
Katman_1
10
1250.086968
20
-1203.086788
11
1299.909913
21
-1203.086788
0
LINE
8
Katman_1
10
1299.909913
20
-1203.086788
11
1299.909913
21
-1252.909733
0
LINE
8
Katman_1
10
1299.909913
20
-1252.909733
11
1250.086968
21
-1252.909733
0
LINE
8
Katman_1
10
1250.086968
20
-1252.909733
11
1250.086968
21
-1203.086788
0
LINE
8
Katman_1
10
1250.082550
20
-1252.913112
11
1299.914535
21
-1203.082237
0
LINE
8
Katman_1
10
1300.086964
20
-1203.086788
11
1349.909909
21
-1203.086788
0
LINE
8
Katman_1
10
1349.909909
20
-1203.086788
11
1349.909909
21
-1252.909733
0
LINE
8
Katman_1
10
1349.909909
20
-1252.909733
11
1300.086964
21
-1252.909733
0
LINE
8
Katman_1
10
1300.086964
20
-1252.909733
11
1300.086964
21
-1203.086788
0
LINE
8
Katman_1
10
1300.082493
20
-1252.913138
11
1349.914478
21
-1203.082264
0
LINE
8
Katman_1
10
1350.086960
20
-1203.086788
11
1399.909904
21
-1203.086788
0
LINE
8
Katman_1
10
1399.909904
20
-1203.086788
11
1399.909904
21
-1252.909733
0
LINE
8
Katman_1
10
1399.909904
20
-1252.909733
11
1350.086960
21
-1252.909733
0
LINE
8
Katman_1
10
1350.086960
20
-1252.909733
11
1350.086960
21
-1203.086788
0
LINE
8
Katman_1
10
1350.082435
20
-1252.913138
11
1399.914421
21
-1203.082264
0
LINE
8
Katman_1
10
1400.086929
20
-1203.086788
11
1449.909874
21
-1203.086788
0
LINE
8
Katman_1
10
1449.909874
20
-1203.086788
11
1449.909874
21
-1252.909733
0
LINE
8
Katman_1
10
1449.909874
20
-1252.909733
11
1400.086929
21
-1252.909733
0
LINE
8
Katman_1
10
1400.086929
20
-1252.909733
11
1400.086929
21
-1203.086788
0
LINE
8
Katman_1
10
1400.082378
20
-1252.913165
11
1449.914364
21
-1203.082290
0
LINE
8
Katman_1
10
1250.087101
20
-1253.086758
11
1299.910045
21
-1253.086758
0
LINE
8
Katman_1
10
1299.910045
20
-1253.086758
11
1299.910045
21
-1302.909702
0
LINE
8
Katman_1
10
1299.910045
20
-1302.909702
11
1250.087101
21
-1302.909702
0
LINE
8
Katman_1
10
1250.087101
20
-1302.909702
11
1250.087101
21
-1253.086758
0
LINE
8
Katman_1
10
1250.082550
20
-1302.913081
11
1299.914535
21
-1253.082207
0
LINE
8
Katman_1
10
1300.086964
20
-1253.086758
11
1349.909909
21
-1253.086758
0
LINE
8
Katman_1
10
1349.909909
20
-1253.086758
11
1349.909909
21
-1302.909702
0
LINE
8
Katman_1
10
1349.909909
20
-1302.909702
11
1300.086964
21
-1302.909702
0
LINE
8
Katman_1
10
1300.086964
20
-1302.909702
11
1300.086964
21
-1253.086758
0
LINE
8
Katman_1
10
1300.082493
20
-1302.913107
11
1349.914478
21
-1253.082233
0
LINE
8
Katman_1
10
1350.086827
20
-1253.086758
11
1399.909772
21
-1253.086758
0
LINE
8
Katman_1
10
1399.909772
20
-1253.086758
11
1399.909772
21
-1302.909702
0
LINE
8
Katman_1
10
1399.909772
20
-1302.909702
11
1350.086827
21
-1302.909702
0
LINE
8
Katman_1
10
1350.086827
20
-1302.909702
11
1350.086827
21
-1253.086758
0
LINE
8
Katman_1
10
1350.082435
20
-1302.913107
11
1399.914421
21
-1253.082233
0
LINE
8
Katman_1
10
1400.086797
20
-1253.086758
11
1449.909741
21
-1253.086758
0
LINE
8
Katman_1
10
1449.909741
20
-1253.086758
11
1449.909741
21
-1302.909702
0
LINE
8
Katman_1
10
1449.909741
20
-1302.909702
11
1400.086797
21
-1302.909702
0
LINE
8
Katman_1
10
1400.086797
20
-1302.909702
11
1400.086797
21
-1253.086758
0
LINE
8
Katman_1
10
1400.082378
20
-1302.913134
11
1449.914364
21
-1253.082260
0
LINE
8
Katman_1
10
1250.086968
20
-1103.086797
11
1299.909913
21
-1103.086797
0
LINE
8
Katman_1
10
1299.909913
20
-1103.086797
11
1299.909913
21
-1152.909741
0
LINE
8
Katman_1
10
1299.909913
20
-1152.909741
11
1250.086968
21
-1152.909741
0
LINE
8
Katman_1
10
1250.086968
20
-1152.909741
11
1250.086968
21
-1103.086797
0
LINE
8
Katman_1
10
1250.082550
20
-1152.913253
11
1299.914535
21
-1103.082378
0
LINE
8
Katman_1
10
1300.086964
20
-1103.086797
11
1349.909909
21
-1103.086797
0
LINE
8
Katman_1
10
1349.909909
20
-1103.086797
11
1349.909909
21
-1152.909741
0
LINE
8
Katman_1
10
1349.909909
20
-1152.909741
11
1300.086964
21
-1152.909741
0
LINE
8
Katman_1
10
1300.086964
20
-1152.909741
11
1300.086964
21
-1103.086797
0
LINE
8
Katman_1
10
1300.082493
20
-1152.913279
11
1349.914478
21
-1103.082405
0
LINE
8
Katman_1
10
1350.086960
20
-1103.086797
11
1399.909904
21
-1103.086797
0
LINE
8
Katman_1
10
1399.909904
20
-1103.086797
11
1399.909904
21
-1152.909741
0
LINE
8
Katman_1
10
1399.909904
20
-1152.909741
11
1350.086960
21
-1152.909741
0
LINE
8
Katman_1
10
1350.086960
20
-1152.909741
11
1350.086960
21
-1103.086797
0
LINE
8
Katman_1
10
1350.082435
20
-1152.913279
11
1399.914421
21
-1103.082405
0
LINE
8
Katman_1
10
1400.086929
20
-1103.086797
11
1449.909874
21
-1103.086797
0
LINE
8
Katman_1
10
1449.909874
20
-1103.086797
11
1449.909874
21
-1152.909741
0
LINE
8
Katman_1
10
1449.909874
20
-1152.909741
11
1400.086929
21
-1152.909741
0
LINE
8
Katman_1
10
1400.086929
20
-1152.909741
11
1400.086929
21
-1103.086797
0
LINE
8
Katman_1
10
1400.082378
20
-1152.913305
11
1449.914364
21
-1103.082431
0
LINE
8
Katman_1
10
1250.087101
20
-1153.086792
11
1299.910045
21
-1153.086792
0
LINE
8
Katman_1
10
1299.910045
20
-1153.086792
11
1299.910045
21
-1202.909737
0
LINE
8
Katman_1
10
1299.910045
20
-1202.909737
11
1250.087101
21
-1202.909737
0
LINE
8
Katman_1
10
1250.087101
20
-1202.909737
11
1250.087101
21
-1153.086792
0
LINE
8
Katman_1
10
1250.082550
20
-1202.913222
11
1299.914535
21
-1153.082347
0
LINE
8
Katman_1
10
1300.086964
20
-1153.086792
11
1349.909909
21
-1153.086792
0
LINE
8
Katman_1
10
1349.909909
20
-1153.086792
11
1349.909909
21
-1202.909737
0
LINE
8
Katman_1
10
1349.909909
20
-1202.909737
11
1300.086964
21
-1202.909737
0
LINE
8
Katman_1
10
1300.086964
20
-1202.909737
11
1300.086964
21
-1153.086792
0
LINE
8
Katman_1
10
1300.082493
20
-1202.913248
11
1349.914478
21
-1153.082374
0
LINE
8
Katman_1
10
1350.086827
20
-1153.086792
11
1399.909772
21
-1153.086792
0
LINE
8
Katman_1
10
1399.909772
20
-1153.086792
11
1399.909772
21
-1202.909737
0
LINE
8
Katman_1
10
1399.909772
20
-1202.909737
11
1350.086827
21
-1202.909737
0
LINE
8
Katman_1
10
1350.086827
20
-1202.909737
11
1350.086827
21
-1153.086792
0
LINE
8
Katman_1
10
1350.082435
20
-1202.913248
11
1399.914421
21
-1153.082374
0
LINE
8
Katman_1
10
1400.086797
20
-1153.086792
11
1449.909741
21
-1153.086792
0
LINE
8
Katman_1
10
1449.909741
20
-1153.086792
11
1449.909741
21
-1202.909737
0
LINE
8
Katman_1
10
1449.909741
20
-1202.909737
11
1400.086797
21
-1202.909737
0
LINE
8
Katman_1
10
1400.086797
20
-1202.909737
11
1400.086797
21
-1153.086792
0
LINE
8
Katman_1
10
1400.082378
20
-1202.913275
11
1449.914364
21
-1153.082400
0
LINE
8
Katman_1
10
1450.086660
20
-1003.086832
11
1499.909605
21
-1003.086832
0
LINE
8
Katman_1
10
1499.909605
20
-1003.086832
11
1499.909605
21
-1052.909776
0
LINE
8
Katman_1
10
1499.909605
20
-1052.909776
11
1450.086660
21
-1052.909776
0
LINE
8
Katman_1
10
1450.086660
20
-1052.909776
11
1450.086660
21
-1003.086832
0
LINE
8
Katman_1
10
1450.082321
20
-1052.913367
11
1499.914307
21
-1003.082493
0
LINE
8
Katman_1
10
1500.086656
20
-1003.086832
11
1549.909601
21
-1003.086832
0
LINE
8
Katman_1
10
1549.909601
20
-1003.086832
11
1549.909601
21
-1052.909776
0
LINE
8
Katman_1
10
1549.909601
20
-1052.909776
11
1500.086656
21
-1052.909776
0
LINE
8
Katman_1
10
1500.086656
20
-1052.909776
11
1500.086656
21
-1003.086832
0
LINE
8
Katman_1
10
1500.082264
20
-1052.913393
11
1549.914249
21
-1003.082519
0
LINE
8
Katman_1
10
1550.086625
20
-1003.086832
11
1599.909570
21
-1003.086832
0
LINE
8
Katman_1
10
1599.909570
20
-1003.086832
11
1599.909570
21
-1052.909776
0
LINE
8
Katman_1
10
1599.909570
20
-1052.909776
11
1550.086625
21
-1052.909776
0
LINE
8
Katman_1
10
1550.086625
20
-1052.909776
11
1550.086625
21
-1003.086832
0
LINE
8
Katman_1
10
1550.082207
20
-1052.913393
11
1599.914192
21
-1003.082519
0
LINE
8
Katman_1
10
1600.086621
20
-1003.086832
11
1649.909566
21
-1003.086832
0
LINE
8
Katman_1
10
1649.909566
20
-1003.086832
11
1649.909566
21
-1052.909776
0
LINE
8
Katman_1
10
1649.909566
20
-1052.909776
11
1600.086621
21
-1052.909776
0
LINE
8
Katman_1
10
1600.086621
20
-1052.909776
11
1600.086621
21
-1003.086832
0
LINE
8
Katman_1
10
1600.082150
20
-1052.913420
11
1649.914135
21
-1003.082545
0
LINE
8
Katman_1
10
1450.086792
20
-1053.086827
11
1499.909737
21
-1053.086827
0
LINE
8
Katman_1
10
1499.909737
20
-1053.086827
11
1499.909737
21
-1102.909772
0
LINE
8
Katman_1
10
1499.909737
20
-1102.909772
11
1450.086792
21
-1102.909772
0
LINE
8
Katman_1
10
1450.086792
20
-1102.909772
11
1450.086792
21
-1053.086827
0
LINE
8
Katman_1
10
1450.082321
20
-1102.913336
11
1499.914307
21
-1053.082462
0
LINE
8
Katman_1
10
1500.086656
20
-1053.086827
11
1549.909601
21
-1053.086827
0
LINE
8
Katman_1
10
1549.909601
20
-1053.086827
11
1549.909601
21
-1102.909772
0
LINE
8
Katman_1
10
1549.909601
20
-1102.909772
11
1500.086656
21
-1102.909772
0
LINE
8
Katman_1
10
1500.086656
20
-1102.909772
11
1500.086656
21
-1053.086827
0
LINE
8
Katman_1
10
1500.082264
20
-1102.913363
11
1549.914249
21
-1053.082488
0
LINE
8
Katman_1
10
1550.086519
20
-1053.086827
11
1599.909464
21
-1053.086827
0
LINE
8
Katman_1
10
1599.909464
20
-1053.086827
11
1599.909464
21
-1102.909772
0
LINE
8
Katman_1
10
1599.909464
20
-1102.909772
11
1550.086519
21
-1102.909772
0
LINE
8
Katman_1
10
1550.086519
20
-1102.909772
11
1550.086519
21
-1053.086827
0
LINE
8
Katman_1
10
1550.082207
20
-1102.913363
11
1599.914192
21
-1053.082488
0
LINE
8
Katman_1
10
1600.086489
20
-1053.086827
11
1649.909433
21
-1053.086827
0
LINE
8
Katman_1
10
1649.909433
20
-1053.086827
11
1649.909433
21
-1102.909772
0
LINE
8
Katman_1
10
1649.909433
20
-1102.909772
11
1600.086489
21
-1102.909772
0
LINE
8
Katman_1
10
1600.086489
20
-1102.909772
11
1600.086489
21
-1053.086827
0
LINE
8
Katman_1
10
1600.082150
20
-1102.913389
11
1649.914135
21
-1053.082515
0
LINE
8
Katman_1
10
1450.086660
20
-1203.086656
11
1499.909605
21
-1203.086656
0
LINE
8
Katman_1
10
1499.909605
20
-1203.086656
11
1499.909605
21
-1252.909601
0
LINE
8
Katman_1
10
1499.909605
20
-1252.909601
11
1450.086660
21
-1252.909601
0
LINE
8
Katman_1
10
1450.086660
20
-1252.909601
11
1450.086660
21
-1203.086656
0
LINE
8
Katman_1
10
1450.082321
20
-1252.913138
11
1499.914307
21
-1203.082264
0
LINE
8
Katman_1
10
1500.086656
20
-1203.086656
11
1549.909601
21
-1203.086656
0
LINE
8
Katman_1
10
1549.909601
20
-1203.086656
11
1549.909601
21
-1252.909601
0
LINE
8
Katman_1
10
1549.909601
20
-1252.909601
11
1500.086656
21
-1252.909601
0
LINE
8
Katman_1
10
1500.086656
20
-1252.909601
11
1500.086656
21
-1203.086656
0
LINE
8
Katman_1
10
1500.082264
20
-1252.913165
11
1549.914249
21
-1203.082290
0
LINE
8
Katman_1
10
1550.086625
20
-1203.086656
11
1599.909570
21
-1203.086656
0
LINE
8
Katman_1
10
1599.909570
20
-1203.086656
11
1599.909570
21
-1252.909601
0
LINE
8
Katman_1
10
1599.909570
20
-1252.909601
11
1550.086625
21
-1252.909601
0
LINE
8
Katman_1
10
1550.086625
20
-1252.909601
11
1550.086625
21
-1203.086656
0
LINE
8
Katman_1
10
1550.082207
20
-1252.913165
11
1599.914192
21
-1203.082290
0
LINE
8
Katman_1
10
1600.086621
20
-1203.086656
11
1649.909566
21
-1203.086656
0
LINE
8
Katman_1
10
1649.909566
20
-1203.086656
11
1649.909566
21
-1252.909601
0
LINE
8
Katman_1
10
1649.909566
20
-1252.909601
11
1600.086621
21
-1252.909601
0
LINE
8
Katman_1
10
1600.086621
20
-1252.909601
11
1600.086621
21
-1203.086656
0
LINE
8
Katman_1
10
1600.082150
20
-1252.913191
11
1649.914135
21
-1203.082317
0
LINE
8
Katman_1
10
1450.086792
20
-1253.086625
11
1499.909737
21
-1253.086625
0
LINE
8
Katman_1
10
1499.909737
20
-1253.086625
11
1499.909737
21
-1302.909570
0
LINE
8
Katman_1
10
1499.909737
20
-1302.909570
11
1450.086792
21
-1302.909570
0
LINE
8
Katman_1
10
1450.086792
20
-1302.909570
11
1450.086792
21
-1253.086625
0
LINE
8
Katman_1
10
1450.082321
20
-1302.913107
11
1499.914307
21
-1253.082233
0
LINE
8
Katman_1
10
1500.086656
20
-1253.086625
11
1549.909601
21
-1253.086625
0
LINE
8
Katman_1
10
1549.909601
20
-1253.086625
11
1549.909601
21
-1302.909570
0
LINE
8
Katman_1
10
1549.909601
20
-1302.909570
11
1500.086656
21
-1302.909570
0
LINE
8
Katman_1
10
1500.086656
20
-1302.909570
11
1500.086656
21
-1253.086625
0
LINE
8
Katman_1
10
1500.082264
20
-1302.913134
11
1549.914249
21
-1253.082260
0
LINE
8
Katman_1
10
1550.086519
20
-1253.086625
11
1599.909464
21
-1253.086625
0
LINE
8
Katman_1
10
1599.909464
20
-1253.086625
11
1599.909464
21
-1302.909570
0
LINE
8
Katman_1
10
1599.909464
20
-1302.909570
11
1550.086519
21
-1302.909570
0
LINE
8
Katman_1
10
1550.086519
20
-1302.909570
11
1550.086519
21
-1253.086625
0
LINE
8
Katman_1
10
1550.082207
20
-1302.913134
11
1599.914192
21
-1253.082260
0
LINE
8
Katman_1
10
1600.086489
20
-1253.086625
11
1649.909433
21
-1253.086625
0
LINE
8
Katman_1
10
1649.909433
20
-1253.086625
11
1649.909433
21
-1302.909570
0
LINE
8
Katman_1
10
1649.909433
20
-1302.909570
11
1600.086489
21
-1302.909570
0
LINE
8
Katman_1
10
1600.086489
20
-1302.909570
11
1600.086489
21
-1253.086625
0
LINE
8
Katman_1
10
1600.082150
20
-1302.913160
11
1649.914135
21
-1253.082286
0
LINE
8
Katman_1
10
1450.086660
20
-1103.086691
11
1499.909605
21
-1103.086691
0
LINE
8
Katman_1
10
1499.909605
20
-1103.086691
11
1499.909605
21
-1152.909636
0
LINE
8
Katman_1
10
1499.909605
20
-1152.909636
11
1450.086660
21
-1152.909636
0
LINE
8
Katman_1
10
1450.086660
20
-1152.909636
11
1450.086660
21
-1103.086691
0
LINE
8
Katman_1
10
1450.082321
20
-1152.913279
11
1499.914307
21
-1103.082405
0
LINE
8
Katman_1
10
1500.086656
20
-1103.086691
11
1549.909601
21
-1103.086691
0
LINE
8
Katman_1
10
1549.909601
20
-1103.086691
11
1549.909601
21
-1152.909636
0
LINE
8
Katman_1
10
1549.909601
20
-1152.909636
11
1500.086656
21
-1152.909636
0
LINE
8
Katman_1
10
1500.086656
20
-1152.909636
11
1500.086656
21
-1103.086691
0
LINE
8
Katman_1
10
1500.082264
20
-1152.913305
11
1549.914249
21
-1103.082431
0
LINE
8
Katman_1
10
1550.086625
20
-1103.086691
11
1599.909570
21
-1103.086691
0
LINE
8
Katman_1
10
1599.909570
20
-1103.086691
11
1599.909570
21
-1152.909636
0
LINE
8
Katman_1
10
1599.909570
20
-1152.909636
11
1550.086625
21
-1152.909636
0
LINE
8
Katman_1
10
1550.086625
20
-1152.909636
11
1550.086625
21
-1103.086691
0
LINE
8
Katman_1
10
1550.082207
20
-1152.913305
11
1599.914192
21
-1103.082431
0
LINE
8
Katman_1
10
1600.086621
20
-1103.086691
11
1649.909566
21
-1103.086691
0
LINE
8
Katman_1
10
1649.909566
20
-1103.086691
11
1649.909566
21
-1152.909636
0
LINE
8
Katman_1
10
1649.909566
20
-1152.909636
11
1600.086621
21
-1152.909636
0
LINE
8
Katman_1
10
1600.086621
20
-1152.909636
11
1600.086621
21
-1103.086691
0
LINE
8
Katman_1
10
1600.082150
20
-1152.913332
11
1649.914135
21
-1103.082458
0
LINE
8
Katman_1
10
1450.086792
20
-1153.086660
11
1499.909737
21
-1153.086660
0
LINE
8
Katman_1
10
1499.909737
20
-1153.086660
11
1499.909737
21
-1202.909605
0
LINE
8
Katman_1
10
1499.909737
20
-1202.909605
11
1450.086792
21
-1202.909605
0
LINE
8
Katman_1
10
1450.086792
20
-1202.909605
11
1450.086792
21
-1153.086660
0
LINE
8
Katman_1
10
1450.082321
20
-1202.913248
11
1499.914307
21
-1153.082374
0
LINE
8
Katman_1
10
1500.086656
20
-1153.086660
11
1549.909601
21
-1153.086660
0
LINE
8
Katman_1
10
1549.909601
20
-1153.086660
11
1549.909601
21
-1202.909605
0
LINE
8
Katman_1
10
1549.909601
20
-1202.909605
11
1500.086656
21
-1202.909605
0
LINE
8
Katman_1
10
1500.086656
20
-1202.909605
11
1500.086656
21
-1153.086660
0
LINE
8
Katman_1
10
1500.082264
20
-1202.913275
11
1549.914249
21
-1153.082400
0
LINE
8
Katman_1
10
1550.086519
20
-1153.086660
11
1599.909464
21
-1153.086660
0
LINE
8
Katman_1
10
1599.909464
20
-1153.086660
11
1599.909464
21
-1202.909605
0
LINE
8
Katman_1
10
1599.909464
20
-1202.909605
11
1550.086519
21
-1202.909605
0
LINE
8
Katman_1
10
1550.086519
20
-1202.909605
11
1550.086519
21
-1153.086660
0
LINE
8
Katman_1
10
1550.082207
20
-1202.913275
11
1599.914192
21
-1153.082400
0
LINE
8
Katman_1
10
1600.086489
20
-1153.086660
11
1649.909433
21
-1153.086660
0
LINE
8
Katman_1
10
1649.909433
20
-1153.086660
11
1649.909433
21
-1202.909605
0
LINE
8
Katman_1
10
1649.909433
20
-1202.909605
11
1600.086489
21
-1202.909605
0
LINE
8
Katman_1
10
1600.086489
20
-1202.909605
11
1600.086489
21
-1153.086660
0
LINE
8
Katman_1
10
1600.082150
20
-1202.913301
11
1649.914135
21
-1153.082427
0
LINE
8
Katman_1
10
1650.086484
20
-1003.086964
11
1699.909429
21
-1003.086964
0
LINE
8
Katman_1
10
1699.909429
20
-1003.086964
11
1699.909429
21
-1052.909909
0
LINE
8
Katman_1
10
1699.909429
20
-1052.909909
11
1650.086484
21
-1052.909909
0
LINE
8
Katman_1
10
1650.086484
20
-1052.909909
11
1650.086484
21
-1003.086964
0
LINE
8
Katman_1
10
1650.082092
20
-1052.913367
11
1699.914078
21
-1003.082493
0
LINE
8
Katman_1
10
1700.086454
20
-1003.086964
11
1749.909399
21
-1003.086964
0
LINE
8
Katman_1
10
1749.909399
20
-1003.086964
11
1749.909399
21
-1052.909909
0
LINE
8
Katman_1
10
1749.909399
20
-1052.909909
11
1700.086454
21
-1052.909909
0
LINE
8
Katman_1
10
1700.086454
20
-1052.909909
11
1700.086454
21
-1003.086964
0
LINE
8
Katman_1
10
1700.082035
20
-1052.913393
11
1749.914021
21
-1003.082519
0
LINE
8
Katman_1
10
1750.086450
20
-1003.086964
11
1799.909394
21
-1003.086964
0
LINE
8
Katman_1
10
1799.909394
20
-1003.086964
11
1799.909394
21
-1052.909909
0
LINE
8
Katman_1
10
1799.909394
20
-1052.909909
11
1750.086450
21
-1052.909909
0
LINE
8
Katman_1
10
1750.086450
20
-1052.909909
11
1750.086450
21
-1003.086964
0
LINE
8
Katman_1
10
1750.081978
20
-1052.913393
11
1799.913964
21
-1003.082519
0
LINE
8
Katman_1
10
1800.086445
20
-1003.086964
11
1849.909390
21
-1003.086964
0
LINE
8
Katman_1
10
1849.909390
20
-1003.086964
11
1849.909390
21
-1052.909909
0
LINE
8
Katman_1
10
1849.909390
20
-1052.909909
11
1800.086445
21
-1052.909909
0
LINE
8
Katman_1
10
1800.086445
20
-1052.909909
11
1800.086445
21
-1003.086964
0
LINE
8
Katman_1
10
1800.081921
20
-1052.913420
11
1849.913906
21
-1003.082545
0
LINE
8
Katman_1
10
1650.086617
20
-1053.086960
11
1699.909562
21
-1053.086960
0
LINE
8
Katman_1
10
1699.909562
20
-1053.086960
11
1699.909562
21
-1102.909904
0
LINE
8
Katman_1
10
1699.909562
20
-1102.909904
11
1650.086617
21
-1102.909904
0
LINE
8
Katman_1
10
1650.086617
20
-1102.909904
11
1650.086617
21
-1053.086960
0
LINE
8
Katman_1
10
1650.082092
20
-1102.913336
11
1699.914078
21
-1053.082462
0
LINE
8
Katman_1
10
1700.086454
20
-1053.086960
11
1749.909399
21
-1053.086960
0
LINE
8
Katman_1
10
1749.909399
20
-1053.086960
11
1749.909399
21
-1102.909904
0
LINE
8
Katman_1
10
1749.909399
20
-1102.909904
11
1700.086454
21
-1102.909904
0
LINE
8
Katman_1
10
1700.086454
20
-1102.909904
11
1700.086454
21
-1053.086960
0
LINE
8
Katman_1
10
1700.082035
20
-1102.913363
11
1749.914021
21
-1053.082488
0
LINE
8
Katman_1
10
1750.086317
20
-1053.086960
11
1799.909262
21
-1053.086960
0
LINE
8
Katman_1
10
1799.909262
20
-1053.086960
11
1799.909262
21
-1102.909904
0
LINE
8
Katman_1
10
1799.909262
20
-1102.909904
11
1750.086317
21
-1102.909904
0
LINE
8
Katman_1
10
1750.086317
20
-1102.909904
11
1750.086317
21
-1053.086960
0
LINE
8
Katman_1
10
1750.081978
20
-1102.913363
11
1799.913964
21
-1053.082488
0
LINE
8
Katman_1
10
1800.086313
20
-1053.086960
11
1849.909258
21
-1053.086960
0
LINE
8
Katman_1
10
1849.909258
20
-1053.086960
11
1849.909258
21
-1102.909904
0
LINE
8
Katman_1
10
1849.909258
20
-1102.909904
11
1800.086313
21
-1102.909904
0
LINE
8
Katman_1
10
1800.086313
20
-1102.909904
11
1800.086313
21
-1053.086960
0
LINE
8
Katman_1
10
1800.081921
20
-1102.913389
11
1849.913906
21
-1053.082515
0
LINE
8
Katman_1
10
1650.086484
20
-1203.086788
11
1699.909429
21
-1203.086788
0
LINE
8
Katman_1
10
1699.909429
20
-1203.086788
11
1699.909429
21
-1252.909733
0
LINE
8
Katman_1
10
1699.909429
20
-1252.909733
11
1650.086484
21
-1252.909733
0
LINE
8
Katman_1
10
1650.086484
20
-1252.909733
11
1650.086484
21
-1203.086788
0
LINE
8
Katman_1
10
1650.082092
20
-1252.913138
11
1699.914078
21
-1203.082264
0
LINE
8
Katman_1
10
1700.086454
20
-1203.086788
11
1749.909399
21
-1203.086788
0
LINE
8
Katman_1
10
1749.909399
20
-1203.086788
11
1749.909399
21
-1252.909733
0
LINE
8
Katman_1
10
1749.909399
20
-1252.909733
11
1700.086454
21
-1252.909733
0
LINE
8
Katman_1
10
1700.086454
20
-1252.909733
11
1700.086454
21
-1203.086788
0
LINE
8
Katman_1
10
1700.082035
20
-1252.913165
11
1749.914021
21
-1203.082290
0
LINE
8
Katman_1
10
1750.086450
20
-1203.086788
11
1799.909394
21
-1203.086788
0
LINE
8
Katman_1
10
1799.909394
20
-1203.086788
11
1799.909394
21
-1252.909733
0
LINE
8
Katman_1
10
1799.909394
20
-1252.909733
11
1750.086450
21
-1252.909733
0
LINE
8
Katman_1
10
1750.086450
20
-1252.909733
11
1750.086450
21
-1203.086788
0
LINE
8
Katman_1
10
1750.081978
20
-1252.913165
11
1799.913964
21
-1203.082290
0
LINE
8
Katman_1
10
1800.086445
20
-1203.086788
11
1849.909390
21
-1203.086788
0
LINE
8
Katman_1
10
1849.909390
20
-1203.086788
11
1849.909390
21
-1252.909733
0
LINE
8
Katman_1
10
1849.909390
20
-1252.909733
11
1800.086445
21
-1252.909733
0
LINE
8
Katman_1
10
1800.086445
20
-1252.909733
11
1800.086445
21
-1203.086788
0
LINE
8
Katman_1
10
1800.081921
20
-1252.913191
11
1849.913906
21
-1203.082317
0
LINE
8
Katman_1
10
1650.086617
20
-1253.086758
11
1699.909562
21
-1253.086758
0
LINE
8
Katman_1
10
1699.909562
20
-1253.086758
11
1699.909562
21
-1302.909702
0
LINE
8
Katman_1
10
1699.909562
20
-1302.909702
11
1650.086617
21
-1302.909702
0
LINE
8
Katman_1
10
1650.086617
20
-1302.909702
11
1650.086617
21
-1253.086758
0
LINE
8
Katman_1
10
1650.082092
20
-1302.913107
11
1699.914078
21
-1253.082233
0
LINE
8
Katman_1
10
1700.086454
20
-1253.086758
11
1749.909399
21
-1253.086758
0
LINE
8
Katman_1
10
1749.909399
20
-1253.086758
11
1749.909399
21
-1302.909702
0
LINE
8
Katman_1
10
1749.909399
20
-1302.909702
11
1700.086454
21
-1302.909702
0
LINE
8
Katman_1
10
1700.086454
20
-1302.909702
11
1700.086454
21
-1253.086758
0
LINE
8
Katman_1
10
1700.082035
20
-1302.913134
11
1749.914021
21
-1253.082260
0
LINE
8
Katman_1
10
1750.086317
20
-1253.086758
11
1799.909262
21
-1253.086758
0
LINE
8
Katman_1
10
1799.909262
20
-1253.086758
11
1799.909262
21
-1302.909702
0
LINE
8
Katman_1
10
1799.909262
20
-1302.909702
11
1750.086317
21
-1302.909702
0
LINE
8
Katman_1
10
1750.086317
20
-1302.909702
11
1750.086317
21
-1253.086758
0
LINE
8
Katman_1
10
1750.081978
20
-1302.913134
11
1799.913964
21
-1253.082260
0
LINE
8
Katman_1
10
1800.086313
20
-1253.086758
11
1849.909258
21
-1253.086758
0
LINE
8
Katman_1
10
1849.909258
20
-1253.086758
11
1849.909258
21
-1302.909702
0
LINE
8
Katman_1
10
1849.909258
20
-1302.909702
11
1800.086313
21
-1302.909702
0
LINE
8
Katman_1
10
1800.086313
20
-1302.909702
11
1800.086313
21
-1253.086758
0
LINE
8
Katman_1
10
1800.081921
20
-1302.913160
11
1849.913906
21
-1253.082286
0
LINE
8
Katman_1
10
1650.086484
20
-1103.086797
11
1699.909429
21
-1103.086797
0
LINE
8
Katman_1
10
1699.909429
20
-1103.086797
11
1699.909429
21
-1152.909741
0
LINE
8
Katman_1
10
1699.909429
20
-1152.909741
11
1650.086484
21
-1152.909741
0
LINE
8
Katman_1
10
1650.086484
20
-1152.909741
11
1650.086484
21
-1103.086797
0
LINE
8
Katman_1
10
1650.082092
20
-1152.913279
11
1699.914078
21
-1103.082405
0
LINE
8
Katman_1
10
1700.086454
20
-1103.086797
11
1749.909399
21
-1103.086797
0
LINE
8
Katman_1
10
1749.909399
20
-1103.086797
11
1749.909399
21
-1152.909741
0
LINE
8
Katman_1
10
1749.909399
20
-1152.909741
11
1700.086454
21
-1152.909741
0
LINE
8
Katman_1
10
1700.086454
20
-1152.909741
11
1700.086454
21
-1103.086797
0
LINE
8
Katman_1
10
1700.082035
20
-1152.913305
11
1749.914021
21
-1103.082431
0
LINE
8
Katman_1
10
1750.086450
20
-1103.086797
11
1799.909394
21
-1103.086797
0
LINE
8
Katman_1
10
1799.909394
20
-1103.086797
11
1799.909394
21
-1152.909741
0
LINE
8
Katman_1
10
1799.909394
20
-1152.909741
11
1750.086450
21
-1152.909741
0
LINE
8
Katman_1
10
1750.086450
20
-1152.909741
11
1750.086450
21
-1103.086797
0
LINE
8
Katman_1
10
1750.081978
20
-1152.913305
11
1799.913964
21
-1103.082431
0
LINE
8
Katman_1
10
1800.086445
20
-1103.086797
11
1849.909390
21
-1103.086797
0
LINE
8
Katman_1
10
1849.909390
20
-1103.086797
11
1849.909390
21
-1152.909741
0
LINE
8
Katman_1
10
1849.909390
20
-1152.909741
11
1800.086445
21
-1152.909741
0
LINE
8
Katman_1
10
1800.086445
20
-1152.909741
11
1800.086445
21
-1103.086797
0
LINE
8
Katman_1
10
1800.081921
20
-1152.913332
11
1849.913906
21
-1103.082458
0
LINE
8
Katman_1
10
1650.086617
20
-1153.086792
11
1699.909562
21
-1153.086792
0
LINE
8
Katman_1
10
1699.909562
20
-1153.086792
11
1699.909562
21
-1202.909737
0
LINE
8
Katman_1
10
1699.909562
20
-1202.909737
11
1650.086617
21
-1202.909737
0
LINE
8
Katman_1
10
1650.086617
20
-1202.909737
11
1650.086617
21
-1153.086792
0
LINE
8
Katman_1
10
1650.082092
20
-1202.913248
11
1699.914078
21
-1153.082374
0
LINE
8
Katman_1
10
1700.086454
20
-1153.086792
11
1749.909399
21
-1153.086792
0
LINE
8
Katman_1
10
1749.909399
20
-1153.086792
11
1749.909399
21
-1202.909737
0
LINE
8
Katman_1
10
1749.909399
20
-1202.909737
11
1700.086454
21
-1202.909737
0
LINE
8
Katman_1
10
1700.086454
20
-1202.909737
11
1700.086454
21
-1153.086792
0
LINE
8
Katman_1
10
1700.082035
20
-1202.913275
11
1749.914021
21
-1153.082400
0
LINE
8
Katman_1
10
1750.086317
20
-1153.086792
11
1799.909262
21
-1153.086792
0
LINE
8
Katman_1
10
1799.909262
20
-1153.086792
11
1799.909262
21
-1202.909737
0
LINE
8
Katman_1
10
1799.909262
20
-1202.909737
11
1750.086317
21
-1202.909737
0
LINE
8
Katman_1
10
1750.086317
20
-1202.909737
11
1750.086317
21
-1153.086792
0
LINE
8
Katman_1
10
1750.081978
20
-1202.913275
11
1799.913964
21
-1153.082400
0
LINE
8
Katman_1
10
1800.086313
20
-1153.086792
11
1849.909258
21
-1153.086792
0
LINE
8
Katman_1
10
1849.909258
20
-1153.086792
11
1849.909258
21
-1202.909737
0
LINE
8
Katman_1
10
1849.909258
20
-1202.909737
11
1800.086313
21
-1202.909737
0
LINE
8
Katman_1
10
1800.086313
20
-1202.909737
11
1800.086313
21
-1153.086792
0
LINE
8
Katman_1
10
1800.081921
20
-1202.913301
11
1849.913906
21
-1153.082427
 0 
ENDSEC
 0 
EOF